<svg aria-hidden="true" style="width:0;height:0;position:absolute;overflow:hidden" xmlns="http://www.w3.org/2000/svg"><defs><symbol id="icon-dots-tab-second" viewBox="0 0 85 32"><path fill="#f8d24e" style="fill:var(--color1,#f8d24e)" d="M34.717 29.57c0 1.021-.832 1.849-1.858 1.849s-1.858-.828-1.858-1.849.832-1.849 1.858-1.849 1.858.828 1.858 1.849zM38.432 27.259c0 1.021-.832 1.849-1.858 1.849s-1.858-.828-1.858-1.849.832-1.849 1.858-1.849 1.858.828 1.858 1.849zM43.076 24.484c0 1.021-.832 1.849-1.858 1.849s-1.858-.828-1.858-1.849.832-1.849 1.858-1.849 1.858.828 1.858 1.849zM46.791 22.173c0 1.021-.832 1.849-1.858 1.849s-1.858-.828-1.858-1.849.832-1.849 1.858-1.849 1.858.828 1.858 1.849zM44.469 28.646c0 1.021-.832 1.849-1.858 1.849s-1.858-.828-1.858-1.849.832-1.849 1.858-1.849 1.858.828 1.858 1.849zM48.184 26.334c0 1.021-.832 1.849-1.858 1.849s-1.858-.828-1.858-1.849.832-1.849 1.858-1.849 1.858.828 1.858 1.849zM52.828 23.56c0 1.021-.832 1.849-1.858 1.849s-1.858-.828-1.858-1.849.832-1.849 1.858-1.849 1.858.828 1.858 1.849zM56.543 21.248c0 1.021-.832 1.849-1.858 1.849s-1.858-.828-1.858-1.849.832-1.849 1.858-1.849 1.858.828 1.858 1.849zM52.828 27.721c0 1.021-.832 1.849-1.858 1.849s-1.858-.828-1.858-1.849.832-1.849 1.858-1.849 1.858.828 1.858 1.849zM56.543 25.409c0 1.021-.832 1.849-1.858 1.849s-1.858-.828-1.858-1.849.832-1.849 1.858-1.849 1.858.828 1.858 1.849zM61.186 22.635c0 1.021-.832 1.849-1.858 1.849s-1.858-.828-1.858-1.849.832-1.849 1.858-1.849 1.858.828 1.858 1.849zM64.902 20.323c0 1.021-.832 1.849-1.858 1.849s-1.858-.828-1.858-1.849.832-1.849 1.858-1.849 1.858.828 1.858 1.849zM61.186 26.334c0 1.021-.832 1.849-1.858 1.849s-1.858-.828-1.858-1.849.832-1.849 1.858-1.849 1.858.828 1.858 1.849zM64.902 24.022c0 1.021-.832 1.849-1.858 1.849s-1.858-.828-1.858-1.849.832-1.849 1.858-1.849 1.858.828 1.858 1.849zM69.545 21.248c0 1.021-.832 1.849-1.858 1.849s-1.858-.828-1.858-1.849.832-1.849 1.858-1.849 1.858.828 1.858 1.849zM73.26 18.936c0 1.021-.832 1.849-1.858 1.849s-1.858-.828-1.858-1.849.832-1.849 1.858-1.849 1.858.828 1.858 1.849zM63.508 29.57c0 1.021-.832 1.849-1.858 1.849s-1.858-.828-1.858-1.849.832-1.849 1.858-1.849 1.858.828 1.858 1.849zM67.223 27.259c0 1.021-.832 1.849-1.858 1.849s-1.858-.828-1.858-1.849.832-1.849 1.858-1.849 1.858.828 1.858 1.849zM72.332 30.033c0 1.021-.832 1.849-1.858 1.849s-1.858-.828-1.858-1.849.832-1.849 1.858-1.849 1.858.828 1.858 1.849zM71.867 24.484c0 1.021-.832 1.849-1.858 1.849s-1.858-.828-1.858-1.849.832-1.849 1.858-1.849 1.858.828 1.858 1.849zM76.975 27.259c0 1.021-.832 1.849-1.858 1.849s-1.858-.828-1.858-1.849.832-1.849 1.858-1.849 1.858.828 1.858 1.849zM81.154 30.033c0 1.021-.832 1.849-1.858 1.849s-1.858-.828-1.858-1.849.832-1.849 1.858-1.849 1.858.828 1.858 1.849zM75.582 22.173c0 1.021-.832 1.849-1.858 1.849s-1.858-.828-1.858-1.849.832-1.849 1.858-1.849 1.858.828 1.858 1.849zM81.154 24.947c0 1.021-.832 1.849-1.858 1.849s-1.858-.828-1.858-1.849.832-1.849 1.858-1.849 1.858.828 1.858 1.849zM84.87 27.721c0 1.021-.832 1.849-1.858 1.849s-1.858-.828-1.858-1.849.832-1.849 1.858-1.849 1.858.828 1.858 1.849zM17.071 10.151c0 1.021-.832 1.849-1.857 1.849s-1.857-.828-1.857-1.849.832-1.849 1.857-1.849 1.857.828 1.857 1.849zM20.786 7.839c0 1.021-.832 1.849-1.858 1.849S17.07 8.86 17.07 7.839s.832-1.849 1.858-1.849 1.858.828 1.858 1.849zM25.43 5.065c0 1.021-.832 1.849-1.857 1.849s-1.858-.828-1.858-1.849.832-1.849 1.858-1.849 1.858.828 1.858 1.849zM29.145 2.753c0 1.021-.832 1.849-1.858 1.849s-1.858-.828-1.858-1.849.832-1.849 1.858-1.849 1.858.828 1.858 1.849zM9.641 9.689c0 1.021-.832 1.849-1.857 1.849s-1.857-.828-1.857-1.849.832-1.849 1.857-1.849 1.857.828 1.857 1.849zM13.356 7.377c0 1.021-.832 1.849-1.857 1.849s-1.857-.828-1.857-1.849.832-1.849 1.857-1.849 1.857.828 1.857 1.849zM18 4.603c0 1.021-.832 1.849-1.857 1.849s-1.857-.828-1.857-1.849.832-1.849 1.857-1.849 1.858.828 1.858 1.849zM21.715 2.291c0 1.021-.832 1.849-1.857 1.849S18 3.312 18 2.291 18.832.442 19.858.442s1.858.828 1.858 1.849zM25.894 29.57c0 1.021-.832 1.849-1.857 1.849s-1.858-.828-1.858-1.849.832-1.849 1.858-1.849 1.858.828 1.858 1.849zM29.609 27.259c0 1.021-.832 1.849-1.857 1.849s-1.858-.828-1.858-1.849.832-1.849 1.858-1.849 1.858.828 1.858 1.849zM34.253 24.484c0 1.021-.832 1.849-1.858 1.849s-1.858-.828-1.858-1.849.832-1.849 1.858-1.849 1.858.828 1.858 1.849zM37.968 22.173c0 1.021-.832 1.849-1.858 1.849s-1.858-.828-1.858-1.849.832-1.849 1.858-1.849 1.858.828 1.858 1.849zM21.25 28.183c0 1.021-.832 1.849-1.857 1.849s-1.858-.828-1.858-1.849.832-1.849 1.858-1.849 1.858.828 1.858 1.849z"/><path fill="#f8d24e" style="fill:var(--color1,#f8d24e)" d="M24.965 25.872c0 1.021-.832 1.849-1.858 1.849s-1.858-.828-1.858-1.849.832-1.849 1.858-1.849 1.858.828 1.858 1.849zM29.609 23.097c0 1.021-.832 1.849-1.857 1.849s-1.858-.828-1.858-1.849.832-1.849 1.858-1.849 1.858.828 1.858 1.849zM33.324 20.785c0 1.021-.832 1.849-1.858 1.849s-1.858-.828-1.858-1.849.832-1.849 1.858-1.849 1.858.828 1.858 1.849zM23.108 21.71c0 1.021-.832 1.849-1.857 1.849s-1.858-.828-1.858-1.849.832-1.849 1.858-1.849 1.858.828 1.858 1.849zM26.823 19.398c0 1.021-.832 1.849-1.858 1.849s-1.858-.828-1.858-1.849.832-1.849 1.858-1.849 1.858.828 1.858 1.849zM31.467 16.624c0 1.021-.832 1.849-1.857 1.849s-1.858-.828-1.858-1.849.832-1.849 1.858-1.849 1.858.828 1.858 1.849zM35.182 14.312c0 1.021-.832 1.849-1.858 1.849s-1.858-.828-1.858-1.849.832-1.849 1.858-1.849 1.858.828 1.858 1.849zM23.108 11.076c0 1.021-.832 1.849-1.857 1.849s-1.858-.828-1.858-1.849.832-1.849 1.858-1.849 1.858.828 1.858 1.849zM26.823 8.764c0 1.021-.832 1.849-1.858 1.849s-1.858-.828-1.858-1.849.832-1.849 1.858-1.849 1.858.828 1.858 1.849zM31.467 5.99c0 1.021-.832 1.849-1.857 1.849s-1.858-.828-1.858-1.849.832-1.849 1.858-1.849 1.858.828 1.858 1.849zM35.182 3.678c0 1.021-.832 1.849-1.858 1.849s-1.858-.828-1.858-1.849.832-1.849 1.858-1.849 1.858.828 1.858 1.849zM22.179 17.087c0 1.021-.832 1.849-1.857 1.849s-1.858-.828-1.858-1.849.832-1.849 1.858-1.849 1.858.828 1.858 1.849zM25.894 14.775c0 1.021-.832 1.849-1.857 1.849s-1.858-.828-1.858-1.849.832-1.849 1.858-1.849 1.858.828 1.858 1.849zM30.538 12.001c0 1.021-.832 1.849-1.858 1.849s-1.858-.828-1.858-1.849.832-1.849 1.858-1.849 1.858.828 1.858 1.849zM34.253 9.689c0 1.021-.832 1.849-1.858 1.849s-1.858-.828-1.858-1.849.832-1.849 1.858-1.849 1.858.828 1.858 1.849zM3.604 8.302c0 1.021-.728 1.849-1.625 1.849S.354 9.323.354 8.302s.728-1.849 1.625-1.849 1.625.828 1.625 1.849zM7.319 5.99c0 1.021-.728 1.849-1.625 1.849S4.069 7.011 4.069 5.99s.728-1.849 1.625-1.849 1.625.828 1.625 1.849zM11.963 3.216c0 1.021-.728 1.849-1.625 1.849s-1.625-.828-1.625-1.849.728-1.849 1.625-1.849 1.625.828 1.625 1.849zM9.873 10.151c.898 0 1.625-.828 1.625-1.849s-.728-1.849-1.625-1.849-1.625.828-1.625 1.849.728 1.849 1.625 1.849z"/></symbol><symbol id="icon-dots-tab-first" viewBox="0 0 104 32"><path fill="#f8d24e" style="fill:var(--color1,#f8d24e)" d="M7.539 26.353c0 2.079-1.688 3.765-3.77 3.765s-3.77-1.686-3.77-3.765 1.688-3.765 3.77-3.765 3.77 1.686 3.77 3.765zM15.078 21.647c0 2.079-1.688 3.765-3.77 3.765s-3.77-1.686-3.77-3.765 1.688-3.765 3.77-3.765 3.77 1.686 3.77 3.765zM24.503 16c0 2.079-1.688 3.765-3.77 3.765s-3.77-1.686-3.77-3.765 1.688-3.765 3.77-3.765 3.77 1.686 3.77 3.765zM32.042 11.294c0 2.079-1.688 3.765-3.77 3.765s-3.77-1.686-3.77-3.765 1.688-3.765 3.77-3.765 3.77 1.686 3.77 3.765zM52.775 28.235c0 2.079-1.688 3.765-3.77 3.765s-3.77-1.686-3.77-3.765 1.688-3.765 3.77-3.765 3.77 1.686 3.77 3.765zM60.314 23.529c0 2.079-1.688 3.765-3.77 3.765s-3.77-1.686-3.77-3.765 1.688-3.765 3.77-3.765 3.77 1.686 3.77 3.765zM69.738 17.882c0 2.079-1.688 3.765-3.77 3.765s-3.77-1.686-3.77-3.765 1.688-3.765 3.77-3.765 3.77 1.686 3.77 3.765zM77.277 13.176c0 2.079-1.688 3.765-3.77 3.765s-3.77-1.686-3.77-3.765 1.688-3.765 3.77-3.765 3.77 1.686 3.77 3.765z"/><path fill="#f8d24e" style="fill:var(--color1,#f8d24e)" d="M69.738 25.412c0 2.079-1.477 3.765-3.298 3.765s-3.298-1.686-3.298-3.765 1.477-3.765 3.298-3.765 3.298 1.686 3.298 3.765zM77.277 20.706c0 2.079-1.477 3.765-3.298 3.765s-3.298-1.686-3.298-3.765 1.477-3.765 3.298-3.765 3.298 1.686 3.298 3.765zM85.759 16c0 2.079-1.477 3.765-3.298 3.765S79.163 18.079 79.163 16s1.477-3.765 3.298-3.765 3.298 1.686 3.298 3.765zM94.24 11.294c0 2.079-1.477 3.765-3.298 3.765s-3.298-1.686-3.298-3.765 1.477-3.765 3.298-3.765 3.298 1.686 3.298 3.765zM103.665 3.765c0 2.079-1.477 3.765-3.298 3.765s-3.298-1.686-3.298-3.765S98.546 0 100.367 0s3.298 1.686 3.298 3.765zM83.874 7.529c0 2.079-1.477 3.765-3.298 3.765s-3.298-1.686-3.298-3.765 1.477-3.765 3.298-3.765 3.298 1.686 3.298 3.765zM35.811 28.235c0 2.079-1.688 3.765-3.77 3.765s-3.77-1.686-3.77-3.765 1.688-3.765 3.77-3.765 3.77 1.686 3.77 3.765zM43.35 23.529c0 2.079-1.688 3.765-3.77 3.765s-3.77-1.686-3.77-3.765 1.688-3.765 3.77-3.765 3.77 1.686 3.77 3.765zM52.775 17.882c0 2.079-1.688 3.765-3.77 3.765s-3.77-1.686-3.77-3.765 1.688-3.765 3.77-3.765 3.77 1.686 3.77 3.765zM60.314 13.176c0 2.079-1.688 3.765-3.77 3.765s-3.77-1.686-3.77-3.765 1.688-3.765 3.77-3.765 3.77 1.686 3.77 3.765zM20.733 27.294c0 2.079-1.688 3.765-3.77 3.765s-3.77-1.686-3.77-3.765 1.688-3.765 3.77-3.765 3.77 1.686 3.77 3.765zM28.272 22.588c0 2.079-1.688 3.765-3.77 3.765s-3.77-1.686-3.77-3.765 1.688-3.765 3.77-3.765 3.77 1.686 3.77 3.765zM37.696 16.941c0 2.079-1.688 3.765-3.77 3.765s-3.77-1.686-3.77-3.765 1.688-3.765 3.77-3.765 3.77 1.686 3.77 3.765zM45.236 12.235c0 2.079-1.688 3.765-3.77 3.765s-3.77-1.686-3.77-3.765 1.688-3.765 3.77-3.765 3.77 1.686 3.77 3.765z"/></symbol><symbol id="icon-Arrow-hero" viewBox="0 0 82 32"><path fill="#fcfcfc" style="fill:var(--color2,#fcfcfc)" d="M81.414 17.414a2 2 0 0 0 0-2.828L68.686 1.858a2 2 0 1 0-2.828 2.828L77.172 16 65.858 27.314a2 2 0 1 0 2.828 2.828l12.728-12.728zM0 18h80v-4H0v4z"/></symbol><symbol id="icon-dots-mobile-second" viewBox="0 0 81 32"><path fill="#f8d24e" style="fill:var(--color1,#f8d24e)" d="M33.02 29.616c0 .982-.745 1.778-1.664 1.778s-1.664-.796-1.664-1.778.745-1.778 1.664-1.778 1.664.796 1.664 1.778zM36.626 27.245c0 .982-.745 1.778-1.664 1.778s-1.664-.796-1.664-1.778.745-1.778 1.664-1.778 1.664.796 1.664 1.778zM40.785 24.578c0 .982-.745 1.778-1.664 1.778s-1.664-.796-1.664-1.778.745-1.778 1.664-1.778 1.664.796 1.664 1.778zM44.669 22.206c0 .982-.745 1.778-1.664 1.778s-1.664-.796-1.664-1.778.745-1.778 1.664-1.778 1.664.796 1.664 1.778zM42.449 28.431c0 .982-.745 1.778-1.664 1.778s-1.664-.796-1.664-1.778.745-1.778 1.664-1.778 1.664.796 1.664 1.778zM46.055 26.06c0 .982-.745 1.778-1.664 1.778s-1.664-.796-1.664-1.778.745-1.778 1.664-1.778 1.664.796 1.664 1.778zM50.215 23.392c0 .982-.745 1.778-1.664 1.778s-1.664-.796-1.664-1.778.745-1.778 1.664-1.778 1.664.796 1.664 1.778zM54.099 21.021c0 .982-.745 1.778-1.664 1.778s-1.664-.796-1.664-1.778.745-1.778 1.664-1.778 1.664.796 1.664 1.778zM50.493 27.542c0 .982-.745 1.778-1.664 1.778s-1.664-.796-1.664-1.778.745-1.778 1.664-1.778 1.664.796 1.664 1.778zM54.099 25.171c0 .982-.745 1.778-1.664 1.778s-1.664-.796-1.664-1.778.745-1.778 1.664-1.778 1.664.796 1.664 1.778zM58.26 22.503c0 .982-.745 1.778-1.664 1.778s-1.664-.796-1.664-1.778.745-1.778 1.664-1.778 1.664.796 1.664 1.778zM62.141 20.132c0 .982-.745 1.778-1.664 1.778s-1.664-.796-1.664-1.778.745-1.778 1.664-1.778 1.664.796 1.664 1.778zM58.258 26.356c0 .982-.745 1.778-1.664 1.778s-1.664-.796-1.664-1.778.745-1.778 1.664-1.778 1.664.796 1.664 1.778zM61.863 23.985c0 .982-.745 1.778-1.664 1.778s-1.664-.796-1.664-1.778.745-1.778 1.664-1.778 1.664.796 1.664 1.778zM66.023 21.318c0 .982-.745 1.778-1.664 1.778s-1.664-.796-1.664-1.778.745-1.778 1.664-1.778 1.664.796 1.664 1.778zM69.907 18.947c0 .982-.745 1.778-1.664 1.778s-1.664-.796-1.664-1.778.745-1.778 1.664-1.778 1.664.796 1.664 1.778zM60.756 29.616c0 .982-.745 1.778-1.664 1.778s-1.664-.796-1.664-1.778.745-1.778 1.664-1.778 1.664.796 1.664 1.778zM64.362 27.245c0 .982-.745 1.778-1.664 1.778s-1.664-.796-1.664-1.778.745-1.778 1.664-1.778 1.664.796 1.664 1.778zM69.354 29.913c0 .982-.745 1.778-1.664 1.778s-1.664-.796-1.664-1.778.745-1.778 1.664-1.778 1.664.796 1.664 1.778zM68.522 24.578c0 .982-.745 1.778-1.664 1.778s-1.664-.796-1.664-1.778.745-1.778 1.664-1.778 1.664.796 1.664 1.778zM73.514 27.245c0 .982-.745 1.778-1.664 1.778s-1.664-.796-1.664-1.778.745-1.778 1.664-1.778 1.664.796 1.664 1.778zM77.398 29.913c0 .982-.745 1.778-1.664 1.778s-1.664-.796-1.664-1.778.745-1.778 1.664-1.778 1.664.796 1.664 1.778zM72.405 22.206c0 .982-.745 1.778-1.664 1.778s-1.664-.796-1.664-1.778.745-1.778 1.664-1.778 1.664.796 1.664 1.778zM77.398 24.874c0 .982-.745 1.778-1.664 1.778s-1.664-.796-1.664-1.778.745-1.778 1.664-1.778 1.664.796 1.664 1.778zM81.281 27.542c0 .982-.745 1.778-1.664 1.778s-1.664-.796-1.664-1.778.745-1.778 1.664-1.778 1.664.796 1.664 1.778zM16.102 10.055c0 .982-.745 1.778-1.664 1.778s-1.664-.796-1.664-1.778.745-1.778 1.664-1.778 1.664.796 1.664 1.778zM19.707 7.684c0 .982-.745 1.778-1.664 1.778s-1.664-.796-1.664-1.778.745-1.778 1.664-1.778 1.664.796 1.664 1.778zM23.868 5.016c0 .982-.745 1.778-1.664 1.778s-1.664-.796-1.664-1.778.745-1.778 1.664-1.778 1.664.796 1.664 1.778zM27.75 2.645c0 .982-.745 1.778-1.664 1.778s-1.664-.796-1.664-1.778.745-1.778 1.664-1.778 1.664.796 1.664 1.778zM9.168 9.758c0 .982-.745 1.778-1.664 1.778S5.84 10.74 5.84 9.758 6.585 7.98 7.504 7.98s1.664.796 1.664 1.778zM12.773 7.387c0 .982-.745 1.778-1.664 1.778s-1.664-.796-1.664-1.778.745-1.778 1.664-1.778 1.664.796 1.664 1.778zM16.933 4.72c0 .982-.745 1.778-1.664 1.778s-1.664-.796-1.664-1.778.745-1.778 1.664-1.778 1.664.796 1.664 1.778zM20.816 2.349c0 .982-.745 1.778-1.664 1.778s-1.664-.796-1.664-1.778.745-1.778 1.664-1.778 1.664.796 1.664 1.778zM24.699 29.616c0 .982-.745 1.778-1.664 1.778s-1.664-.796-1.664-1.778.745-1.778 1.664-1.778 1.664.796 1.664 1.778zM28.304 27.245c0 .982-.745 1.778-1.664 1.778s-1.664-.796-1.664-1.778.745-1.778 1.664-1.778 1.664.796 1.664 1.778zM32.464 24.578c0 .982-.745 1.778-1.664 1.778s-1.664-.796-1.664-1.778.745-1.778 1.664-1.778 1.664.796 1.664 1.778zM36.348 22.206c0 .982-.745 1.778-1.664 1.778s-1.664-.796-1.664-1.778.745-1.778 1.664-1.778 1.664.796 1.664 1.778zM20.261 27.838c0 .982-.745 1.778-1.664 1.778s-1.664-.796-1.664-1.778.745-1.778 1.664-1.778 1.664.796 1.664 1.778zM23.867 25.467c0 .982-.745 1.778-1.664 1.778s-1.664-.796-1.664-1.778.745-1.778 1.664-1.778 1.664.796 1.664 1.778zM28.027 22.8c0 .982-.745 1.778-1.664 1.778s-1.664-.796-1.664-1.778.745-1.778 1.664-1.778 1.664.796 1.664 1.778zM31.91 20.429c0 .982-.745 1.778-1.664 1.778s-1.664-.796-1.664-1.778.745-1.778 1.664-1.778 1.664.796 1.664 1.778zM21.926 21.614c0 .982-.745 1.778-1.664 1.778s-1.664-.796-1.664-1.778.745-1.778 1.664-1.778 1.664.796 1.664 1.778zM25.531 19.243c0 .982-.745 1.778-1.664 1.778s-1.664-.796-1.664-1.778.745-1.778 1.664-1.778 1.664.796 1.664 1.778zM29.692 16.575c0 .982-.745 1.778-1.664 1.778s-1.664-.796-1.664-1.778.745-1.778 1.664-1.778 1.664.796 1.664 1.778zM33.575 14.204c0 .982-.745 1.778-1.664 1.778s-1.664-.796-1.664-1.778.745-1.778 1.664-1.778 1.664.796 1.664 1.778zM21.926 11.24c0 .982-.745 1.778-1.664 1.778s-1.664-.796-1.664-1.778.745-1.778 1.664-1.778 1.664.796 1.664 1.778zM25.531 8.869c0 .982-.745 1.778-1.664 1.778s-1.664-.796-1.664-1.778.745-1.778 1.664-1.778 1.664.796 1.664 1.778zM29.692 6.202c0 .982-.745 1.778-1.664 1.778s-1.664-.796-1.664-1.778.745-1.778 1.664-1.778 1.664.796 1.664 1.778zM33.575 3.831c0 .982-.745 1.778-1.664 1.778s-1.664-.796-1.664-1.778.745-1.778 1.664-1.778 1.664.796 1.664 1.778zM21.093 16.872c0 .982-.745 1.778-1.664 1.778s-1.664-.796-1.664-1.778.745-1.778 1.664-1.778 1.664.796 1.664 1.778zM24.7 14.501c0 .982-.745 1.778-1.664 1.778s-1.664-.796-1.664-1.778.745-1.778 1.664-1.778 1.664.796 1.664 1.778zM28.859 11.833c0 .982-.745 1.778-1.664 1.778s-1.664-.796-1.664-1.778.745-1.778 1.664-1.778 1.664.796 1.664 1.778zM32.742 9.462c0 .982-.745 1.778-1.664 1.778s-1.664-.796-1.664-1.778.745-1.778 1.664-1.778 1.664.796 1.664 1.778zM3.62 8.276c0 .982-.745 1.778-1.664 1.778S.292 9.258.292 8.276s.745-1.778 1.664-1.778 1.664.796 1.664 1.778zM7.226 5.905c0 .982-.745 1.778-1.664 1.778s-1.664-.796-1.664-1.778.745-1.778 1.664-1.778 1.664.796 1.664 1.778zM11.386 3.238c0 .982-.745 1.778-1.664 1.778S8.058 4.22 8.058 3.238 8.803 1.46 9.722 1.46s1.664.796 1.664 1.778z"/><path fill="#f8d24e" style="fill:var(--color1,#f8d24e)" d="M9.445 10.055c.919 0 1.664-.796 1.664-1.778s-.745-1.778-1.664-1.778c-.919 0-1.664.796-1.664 1.778s.745 1.778 1.664 1.778z"/></symbol><symbol id="icon-dots-mobile-first" viewBox="0 0 101 32"><path fill="#f8d24e" style="fill:var(--color1,#f8d24e)" d="M83.002 16.522c.208 1.449-.723 2.803-2.078 3.025s-2.623-.772-2.831-2.221c-.208-1.449.723-2.803 2.078-3.025s2.623.772 2.831 2.221zM87.819 12.152c.208 1.449-.723 2.803-2.078 3.025s-2.623-.772-2.831-2.221c-.208-1.449.723-2.803 2.078-3.025s2.623.772 2.831 2.221zM93.392 7.212c.208 1.449-.723 2.803-2.078 3.025s-2.623-.772-2.831-2.221c-.208-1.449.723-2.803 2.078-3.025s2.623.772 2.831 2.221zM98.618 2.776c.208 1.449-.723 2.803-2.078 3.025s-2.623-.772-2.831-2.221c-.208-1.449.723-2.803 2.078-3.025s2.623.772 2.831 2.221zM5.12 16.519c0 1.466-1.146 2.654-2.56 2.654S0 17.985 0 16.519s1.146-2.654 2.56-2.654 2.56 1.188 2.56 2.654zM10.665 12.98c0 1.466-1.146 2.654-2.56 2.654s-2.56-1.188-2.56-2.654 1.146-2.654 2.56-2.654 2.56 1.188 2.56 2.654zM17.066 8.999c0 1.466-1.146 2.654-2.56 2.654s-2.56-1.188-2.56-2.654 1.146-2.654 2.56-2.654 2.56 1.188 2.56 2.654zM23.038 5.46c0 1.466-1.146 2.654-2.56 2.654s-2.56-1.188-2.56-2.654 1.146-2.654 2.56-2.654 2.56 1.188 2.56 2.654zM7.68 23.153c0 1.466-1.146 2.654-2.56 2.654s-2.56-1.188-2.56-2.654 1.146-2.654 2.56-2.654 2.56 1.188 2.56 2.654zM13.226 19.615c0 1.466-1.146 2.654-2.56 2.654s-2.56-1.188-2.56-2.654 1.146-2.654 2.56-2.654 2.56 1.188 2.56 2.654zM19.627 15.634c0 1.466-1.146 2.654-2.56 2.654s-2.56-1.188-2.56-2.654 1.146-2.654 2.56-2.654 2.56 1.188 2.56 2.654zM25.598 12.095c0 1.466-1.146 2.654-2.56 2.654s-2.56-1.188-2.56-2.654 1.146-2.654 2.56-2.654 2.56 1.188 2.56 2.654zM14.078 26.692c0 1.466-1.146 2.654-2.56 2.654s-2.56-1.188-2.56-2.654 1.146-2.654 2.56-2.654 2.56 1.188 2.56 2.654zM19.625 23.153c0 1.466-1.146 2.654-2.56 2.654s-2.56-1.188-2.56-2.654 1.146-2.654 2.56-2.654 2.56 1.188 2.56 2.654zM26.024 19.172c0 1.466-1.146 2.654-2.56 2.654s-2.56-1.188-2.56-2.654 1.146-2.654 2.56-2.654 2.56 1.188 2.56 2.654zM31.996 15.634c0 1.466-1.146 2.654-2.56 2.654s-2.56-1.188-2.56-2.654 1.146-2.654 2.56-2.654 2.56 1.188 2.56 2.654zM21.33 28.904c0 1.466-1.146 2.654-2.56 2.654s-2.56-1.188-2.56-2.654 1.146-2.654 2.56-2.654 2.56 1.188 2.56 2.654zM26.876 25.365c0 1.466-1.146 2.654-2.56 2.654s-2.56-1.188-2.56-2.654 1.146-2.654 2.56-2.654 2.56 1.188 2.56 2.654zM33.278 21.384c0 1.466-1.146 2.654-2.56 2.654s-2.56-1.188-2.56-2.654 1.146-2.654 2.56-2.654 2.56 1.188 2.56 2.654zM39.248 17.846c0 1.466-1.146 2.654-2.56 2.654s-2.56-1.188-2.56-2.654 1.146-2.654 2.56-2.654 2.56 1.188 2.56 2.654z"/><path fill="#f8d24e" style="fill:var(--color1,#f8d24e)" d="M30.717 29.346c0 1.466-1.146 2.654-2.56 2.654s-2.56-1.188-2.56-2.654 1.146-2.654 2.56-2.654 2.56 1.188 2.56 2.654zM36.263 25.808c0 1.466-1.146 2.654-2.56 2.654s-2.56-1.188-2.56-2.654 1.146-2.654 2.56-2.654 2.56 1.188 2.56 2.654zM42.664 21.827c0 1.466-1.146 2.654-2.56 2.654s-2.56-1.188-2.56-2.654 1.146-2.654 2.56-2.654 2.56 1.188 2.56 2.654zM48.635 18.288c0 1.466-1.146 2.654-2.56 2.654s-2.56-1.188-2.56-2.654 1.146-2.654 2.56-2.654 2.56 1.188 2.56 2.654zM41.811 29.346c0 1.466-1.146 2.654-2.56 2.654s-2.56-1.188-2.56-2.654 1.146-2.654 2.56-2.654 2.56 1.188 2.56 2.654zM47.356 25.808c0 1.466-1.146 2.654-2.56 2.654s-2.56-1.188-2.56-2.654 1.146-2.654 2.56-2.654 2.56 1.188 2.56 2.654zM53.756 21.826c0 1.466-1.146 2.654-2.56 2.654s-2.56-1.188-2.56-2.654 1.146-2.654 2.56-2.654 2.56 1.188 2.56 2.654zM59.729 18.288c0 1.466-1.146 2.654-2.56 2.654s-2.56-1.188-2.56-2.654 1.146-2.654 2.56-2.654 2.56 1.188 2.56 2.654z"/><path fill="#f8d24e" style="fill:var(--color1,#f8d24e)" d="M51.194 28.904c0 1.466-1.146 2.654-2.56 2.654s-2.56-1.188-2.56-2.654 1.146-2.654 2.56-2.654 2.56 1.188 2.56 2.654zM56.74 25.365c0 1.466-1.146 2.654-2.56 2.654s-2.56-1.188-2.56-2.654 1.146-2.654 2.56-2.654 2.56 1.188 2.56 2.654zM63.141 21.384c0 1.466-1.146 2.654-2.56 2.654s-2.56-1.188-2.56-2.654 1.146-2.654 2.56-2.654 2.56 1.188 2.56 2.654zM69.112 17.846c0 1.466-1.146 2.654-2.56 2.654s-2.56-1.188-2.56-2.654 1.146-2.654 2.56-2.654 2.56 1.188 2.56 2.654zM61.859 28.461c0 1.466-1.146 2.654-2.56 2.654s-2.56-1.188-2.56-2.654 1.146-2.654 2.56-2.654 2.56 1.188 2.56 2.654zM67.405 24.923c0 1.466-1.146 2.654-2.56 2.654s-2.56-1.188-2.56-2.654 1.146-2.654 2.56-2.654 2.56 1.188 2.56 2.654zM73.806 20.942c0 1.466-1.146 2.654-2.56 2.654s-2.56-1.188-2.56-2.654 1.146-2.654 2.56-2.654 2.56 1.188 2.56 2.654zM79.778 17.403c0 1.466-1.146 2.654-2.56 2.654s-2.56-1.188-2.56-2.654 1.146-2.654 2.56-2.654 2.56 1.188 2.56 2.654z"/><path fill="#f8d24e" style="fill:var(--color1,#f8d24e)" d="M71.672 16.961c0 1.466-1.146 2.654-2.56 2.654s-2.56-1.188-2.56-2.654 1.146-2.654 2.56-2.654 2.56 1.188 2.56 2.654zM77.218 13.422c0 1.466-1.146 2.654-2.56 2.654s-2.56-1.188-2.56-2.654 1.146-2.654 2.56-2.654 2.56 1.188 2.56 2.654zM83.618 9.442c0 1.466-1.146 2.654-2.56 2.654s-2.56-1.188-2.56-2.654 1.146-2.654 2.56-2.654 2.56 1.188 2.56 2.654zM89.59 5.903c0 1.466-1.146 2.654-2.56 2.654s-2.56-1.188-2.56-2.654 1.146-2.654 2.56-2.654 2.56 1.188 2.56 2.654z"/></symbol></defs></svg>