<svg xmlns="http://www.w3.org/2000/svg" aria-hidden="true" style="position:absolute;width:0;height:0;overflow:hidden"><defs><symbol id="icon-ice-icon" viewBox="0 0 16 32"><path fill="#f8d24e" d="M15.5 14.109c1.613-4.366-1.728-6.756-3.942-8.327-.423-.321-.847-.621-1.19-.895A4.161 4.161 0 0 1 9.034.576a.447.447 0 0 0-.132-.455.463.463 0 0 0-.466-.094 7.478 7.478 0 0 0-2.054 1.22 4.857 4.857 0 0 0-1.901 3.846 5.639 5.639 0 0 0-1.097 1.144 4.193 4.193 0 0 0-.809 2.681 5.3 5.3 0 0 0-1.613 4.987 1.433 1.433 0 0 0 .753 2.664h.03v2.483a.947.947 0 0 0 .953.95h.741l1.207 10.43a.952.952 0 0 0 .944.845h5.022a.96.96 0 0 0 .948-.844l1.207-10.43h.741a.947.947 0 0 0 .953-.95V16.57h.03a1.447 1.447 0 0 0 1.337-1.996 1.411 1.411 0 0 0-.316-.47l-.013.004zM4.631 6.188c.61 2.284 2.964 3.184 5.111 3.986a.463.463 0 0 0 .645-.617.467.467 0 0 0-.319-.227c-2.312-.874-4.492-1.689-4.657-4.024-.039-.642.082-1.283.352-1.867s.68-1.093 1.194-1.481a6.874 6.874 0 0 1 1.033-.709 5.362 5.362 0 0 0 0 .878 4.994 4.994 0 0 0 1.786 3.476c.351.3.788.608 1.27.937 1.114.798 2.38 1.689 3.184 2.897a4.512 4.512 0 0 1 .462 4.285h-1.871c-3.857 0-8.29-1.064-9.167-4.045a3.414 3.414 0 0 1 .999-3.466l-.021-.021zm3.472 14.394 1.414 1.41-1.414 1.41-1.414-1.419 1.414-1.402zm3.243 3.704-1.169 1.165-1.414-1.41 1.414-1.406 1.228 1.22-.059.431zM8.103 27.52l-1.414-1.41 1.414-1.41 1.414 1.41-1.414 1.41zm-.648-3.471-1.414 1.41-1.177-1.174-.051-.422 1.228-1.22 1.414 1.406zM5.389 26.11l-.284.283-.072-.642.356.359zm-.149 1.444.8-.798 1.554 1.562a.72.72 0 0 0 .03.093H5.338l-.097-.857zm4.929-.798.8.798-.097.845h-2.35l1.647-1.643zm.931-.363-.284-.283.36-.359-.076.642zm.424-3.691-.707-.718.898-.895-.191 1.613zm-1.359-1.36-1.342-1.334h2.684l-1.342 1.334zm-4.129 0-1.342-1.334h2.684l-1.342 1.334zm4.573 9.02H5.592c-.008-.001-.015-.004-.02-.01s-.009-.012-.01-.02l-.119-1.013h5.318l-.114 1.013c-.001.008-.005.016-.011.021s-.014.008-.023.008h-.004zm3.883-14.711h-1.474a.47.47 0 0 0-.355.117.46.46 0 0 0 .355.797h.525v2.483c-.001.008-.005.016-.011.021s-.014.008-.023.008H2.682c-.008 0-.016-.003-.023-.008s-.01-.013-.011-.021v-2.483h8.388a.46.46 0 0 0 0-.916H1.721a.516.516 0 0 1-.527-.31.53.53 0 0 1 0-.422.533.533 0 0 1 .312-.285.506.506 0 0 1 .215-.025h.961a.46.46 0 0 0 0-.916h-.847a4.51 4.51 0 0 1 .923-3.674c.296.921 1.059 2.179 2.964 3.18 1.791.933 4.162 1.41 7.046 1.41h1.694a.516.516 0 0 1 .527.31.526.526 0 0 1 0 .422.533.533 0 0 1-.312.285.506.506 0 0 1-.215.025h.03z" style="fill:var(--color1, #f8d24e)"/></symbol><symbol id="icon-ce" viewBox="0 0 75 32"><path fill="#f8d24e" d="m19.849 20.32-1.444 2.215.029.018 1.415-2.234zm15.545.749 2.644-.059-.068-3.06-3.018.512.442 2.607zm.181 8.134.673 2.557 2.017-.531-.047-2.085-2.643.059zm-20.4.387.593-2.577-.016-.004-.577 2.58zM5.104 25.097l1.711-2.016-.004-.003-1.707 2.02zm-3.64-8.263 2.644.013v-.013H1.464zm1.265-5.784L.356 9.883l-.002.003 2.374 1.163zm8.108-6.921.938 2.472.01-.004-.948-2.468zm25.977-.671 2.636.205.174-2.233L37.45.891l-.636 2.566zm-.645 8.289-.492 2.598 2.9.55.229-2.942-2.636-.205zm-7.05-3.393c-3.968 0-7.304.424-9.741 1.495-1.249.549-2.385 1.322-3.212 2.413-.853 1.125-1.26 2.437-1.26 3.823h5.288c0-.31.075-.482.186-.628.137-.181.447-.468 1.126-.767 1.419-.624 3.868-1.048 7.612-1.048V8.354zm-14.212 7.731c0 2.721 1.22 4.965 3.499 6.45l2.887-4.431c-.785-.512-1.098-1.091-1.098-2.02h-5.288zm3.527 6.469c2.161 1.368 5.009 1.882 8.206 1.882v-5.288c-2.76 0-4.438-.467-5.376-1.062l-2.83 4.468zm8.206 1.882c3.138 0 6.204-.253 9.196-.76l-.885-5.214a49.62 49.62 0 0 1-8.311.686v5.288zm6.11-3.309.181 8.134 5.287-.117-.181-8.134-5.287.117zm2.152 5.518c-3.023.796-6.357 1.204-10.017 1.204v5.288c4.052 0 7.845-.452 11.363-1.378l-1.346-5.114zm-10.018 1.204c-3.735 0-6.758-.293-9.116-.836l-1.187 5.153c2.875.662 6.325.971 10.302.971v-5.288zm-9.132-.84c-2.524-.565-4.347-1.164-5.563-1.758l-2.321 4.752c1.745.852 4.019 1.561 6.729 2.167l1.154-5.161zm-5.562-1.758c-1.303-.637-2.423-1.363-3.375-2.171l-3.421 4.032c1.321 1.12 2.818 2.081 4.475 2.89l2.321-4.752zm-3.379-2.174c-1.797-1.518-2.717-3.503-2.703-6.23l-5.288-.026c-.021 4.158 1.486 7.683 4.578 10.296l3.413-4.039zm-2.703-6.243c0-1.778.349-3.301.996-4.621L.355 9.886c-1.04 2.123-1.535 4.456-1.535 6.948h5.288zm.994-4.618c1.203-2.446 3.327-4.345 6.673-5.615L9.899 1.657C5.533 3.314 2.252 6.028.356 9.883l4.746 2.334zm6.683-5.618c3.518-1.351 7.444-2.045 11.808-2.045V-.735c-4.932 0-9.51.786-13.704 2.396l1.895 4.937zm11.808-2.045c4.451 0 8.643.494 12.585 1.472L37.451.892C33.06-.197 28.439-.735 23.594-.735v5.288zm10.585-1.3-.646 8.289 5.272.411.646-8.289-5.272-.411zm2.483 5.896c-2.751-.521-5.271-.795-7.542-.795v5.288c1.86 0 4.04.226 6.557.703l.985-5.196zm25.799 4.225-.015 2.644 2.687.015-.028-2.687-2.644.028zm-1.136-3.435-1.799 1.938.023.021 1.776-1.959zm-6.584.258 1.831 1.908.02-.019-1.851-1.889zm-1.601 3.125-2.609-.429-.502 3.056 3.097.017.015-2.644zm19.444 14.099 1.597 2.107.95-.721.089-1.189-2.637-.197zm-5.707 2.117-.569-2.582-.015.003.584 2.579zm-19.831-.723-.902 2.486.022.008.88-2.493zm-4.519-2.401-1.641 2.073.032.025 1.609-2.098zm-3.021-3.796-2.37 1.172.005.01 2.365-1.183zm3.098-16.036 1.758 1.975.001-.001-1.76-1.974zm24.17-2.866 1.057-2.424-.025-.011-1.033 2.434zm6.068 5.578-2.378 1.156.007.015 2.371-1.171zm1.033 4.622 2.638.192.007-.096v-.096h-2.644zm-.31 4.26-.013 2.644 2.471.012.179-2.465-2.637-.192zm-20.942-.103.013-2.644-3.45-.017.88 3.335 2.557-.674zm2.996 3.693-1.301 2.302.011.006 1.291-2.308zm16.061-.904v-2.644h-.528l-.488.203 1.016 2.441zm1.394 0 2.637.197.213-2.841h-2.849v2.644zm-7.968-7.517c-.021-1.913-.46-3.965-2.004-5.365l-3.553 3.917c-.031-.028.029.005.105.234.08.242.156.646.163 1.27l5.288-.056zm-1.981-5.343c-1.388-1.289-3.208-1.714-5.001-1.714v5.288c1.03 0 1.344.246 1.403.3l3.598-3.875zm-5.002-1.714c-1.969 0-3.801.617-5.233 2.021l3.702 3.777c.289-.283.712-.51 1.532-.51V6.288zM52.908 8.29c-1.302 1.25-2.086 2.823-2.379 4.603l5.218.858c.121-.733.403-1.243.823-1.646L52.907 8.29zm.216 7.676 9.322.052.029-5.288-9.322-.052-.029 5.288zm17.862 9.348c-.58.439-1.994 1.051-4.678 1.642l1.137 5.165c2.79-.614 5.18-1.414 6.736-2.593l-3.195-4.214zm-4.694 1.645c-2.562.58-5.025.864-7.395.864v5.288c2.795 0 5.651-.335 8.563-.995l-1.168-5.158zm-7.395.865c-2.492 0-4.544-.118-6.18-.338l-.705 5.241c1.945.262 4.247.385 6.886.385v-5.288zm-6.18-.338a23.987 23.987 0 0 1-4.792-1.164l-1.76 4.987a29.284 29.284 0 0 0 5.847 1.418l.705-5.241zm-4.771-1.157c-1.546-.561-2.804-1.241-3.811-2.014l-3.219 4.196c1.506 1.155 3.26 2.076 5.226 2.789l1.803-4.971zm-3.779-1.988c-.908-.719-1.679-1.669-2.297-2.905l-4.73 2.365c.931 1.862 2.174 3.443 3.745 4.686l3.282-4.146zm-2.292-2.895c-.556-1.125-.888-2.573-.888-4.431h-5.289c0 2.48.443 4.767 1.436 6.775l4.74-2.344zm-.888-4.432c0-1.86.335-3.503.969-4.964l-4.851-2.105c-.95 2.189-1.407 4.557-1.407 7.069h5.289zm.969-4.963c.666-1.536 1.483-2.672 2.405-3.493l-3.516-3.95c-1.591 1.417-2.823 3.224-3.74 5.338l4.851 2.105zm2.407-3.495c2.842-2.534 7.177-4.003 13.424-4.003V-.735c-7.008 0-12.796 1.646-16.943 5.344l3.519 3.947zm13.424-4.003c2.803 0 5.447.534 7.953 1.598l2.065-4.868C64.631-.064 61.284-.735 57.786-.735v5.288zm7.928 1.587c2.34 1.021 3.852 2.468 4.748 4.31l4.756-2.312c-1.515-3.116-4.048-5.387-7.389-6.845L65.715 6.14zm4.755 4.324c.494 1 .76 2.135.76 3.451h5.288c0-2.058-.423-4.004-1.306-5.793l-4.742 2.342zm.767 3.26-.31 4.261 5.274.384.31-4.261-5.275-.384zm2.34 1.808-20.942-.103-.026 5.288 20.941.103.026-5.288zm-23.512 3.215c.618 2.344 2.13 4.121 4.251 5.32l2.602-4.604c-1.046-.591-1.531-1.276-1.74-2.065l-5.114 1.349zm4.262 5.327c2.145 1.199 4.827 1.679 7.824 1.679v-5.288c-2.512 0-4.185-.415-5.243-1.006l-2.581 4.616zm7.824 1.679c3.216 0 6.748-.869 10.544-2.45l-2.032-4.882c-3.399 1.415-6.219 2.043-8.512 2.043v5.288zm9.528-2.247h1.394v-5.288h-1.394v5.288zm-1.242-2.841-.491 6.559 5.274.395.491-6.559-5.274-.395z" style="fill:var(--color1, #f8d24e)"/></symbol><symbol id="icon-hamburger-icon" viewBox="0 0 32 32"><path fill="#fff" d="M26.733 14H5.266c-.7 0-1.267.425-1.267.95v.1c0 .525.567.95 1.267.95h21.467c.7 0 1.267-.425 1.267-.95v-.1c0-.525-.567-.95-1.267-.95zM26.733 20H5.266c-.7 0-1.267.425-1.267.95v.1c0 .525.567.95 1.267.95h21.467c.7 0 1.267-.425 1.267-.95v-.1c0-.525-.567-.95-1.267-.95zM26.733 8H5.266c-.7 0-1.267.425-1.267.95v.1c0 .525.567.95 1.267.95h21.467c.7 0 1.267-.425 1.267-.95v-.1c0-.525-.567-.95-1.267-.95z" style="fill:var(--color2, #fff)"/></symbol><symbol id="icon-close-icon" viewBox="0 0 32 32"><path fill="#fcfcfc" d="M28.614 1.13 16 13.744 3.386 1.13a1.594 1.594 0 0 0-2.207.049 1.596 1.596 0 0 0-.049 2.207L13.738 16 1.127 28.611a1.6 1.6 0 0 0-.029 2.284 1.579 1.579 0 0 0 1.147.468 1.616 1.616 0 0 0 1.137-.493L16 18.259l12.614 12.614a1.6 1.6 0 0 0 2.207-.049 1.596 1.596 0 0 0 .049-2.207L18.256 16.003 30.87 3.385a1.6 1.6 0 0 0 .029-2.284 1.579 1.579 0 0 0-1.147-.468 1.601 1.601 0 0 0-1.137.494v.003z" style="fill:var(--color3, #fcfcfc)"/></symbol></defs></svg>